<?xml version="1.0" encoding="UTF-8"?>
<svg width="700pt" height="700pt" version="1.1" viewBox="0 0 700 700" xmlns="http://www.w3.org/2000/svg" xmlns:xlink="http://www.w3.org/1999/xlink">
 <defs>
  <symbol id="t" overflow="visible">
   <path d="m18.766-1.125c-0.96875 0.5-1.9805 0.875-3.0312 1.125-1.043 0.25781-2.1367 0.39062-3.2812 0.39062-3.3984 0-6.0898-0.94531-8.0781-2.8438-1.9922-1.9062-2.9844-4.4844-2.9844-7.7344 0-3.2578 0.99219-5.8359 2.9844-7.7344 1.9883-1.9062 4.6797-2.8594 8.0781-2.8594 1.1445 0 2.2383 0.13281 3.2812 0.39062 1.0508 0.25 2.0625 0.625 3.0312 1.125v4.2188c-0.98047-0.65625-1.9453-1.1406-2.8906-1.4531-0.94922-0.3125-1.9492-0.46875-3-0.46875-1.875 0-3.3516 0.60547-4.4219 1.8125-1.0742 1.1992-1.6094 2.8555-1.6094 4.9688 0 2.1055 0.53516 3.7617 1.6094 4.9688 1.0703 1.1992 2.5469 1.7969 4.4219 1.7969 1.0508 0 2.0508-0.14844 3-0.45312 0.94531-0.3125 1.9102-0.80078 2.8906-1.4688z"/>
  </symbol>
  <symbol id="b" overflow="visible">
   <path d="m13.734-11.141c-0.4375-0.19531-0.87109-0.34375-1.2969-0.4375-0.41797-0.10156-0.83984-0.15625-1.2656-0.15625-1.2617 0-2.2305 0.40625-2.9062 1.2188-0.67969 0.80469-1.0156 1.9531-1.0156 3.4531v7.0625h-4.8906v-15.312h4.8906v2.5156c0.625-1 1.3438-1.7266 2.1562-2.1875 0.82031-0.46875 1.8008-0.70312 2.9375-0.70312 0.16406 0 0.34375 0.011719 0.53125 0.03125 0.19531 0.011719 0.47656 0.039062 0.84375 0.078125z"/>
  </symbol>
  <symbol id="a" overflow="visible">
   <path d="m17.641-7.7031v1.4062h-11.453c0.125 1.1484 0.53906 2.0078 1.25 2.5781 0.70703 0.57422 1.7031 0.85938 2.9844 0.85938 1.0312 0 2.082-0.14844 3.1562-0.45312 1.082-0.3125 2.1914-0.77344 3.3281-1.3906v3.7656c-1.1562 0.4375-2.3125 0.76562-3.4688 0.98438-1.1562 0.22656-2.3125 0.34375-3.4688 0.34375-2.7734 0-4.9297-0.70312-6.4688-2.1094-1.5312-1.4062-2.2969-3.3789-2.2969-5.9219 0-2.5 0.75391-4.4609 2.2656-5.8906 1.5078-1.4375 3.582-2.1562 6.2188-2.1562 2.4062 0 4.332 0.73047 5.7812 2.1875 1.4453 1.4492 2.1719 3.3828 2.1719 5.7969zm-5.0312-1.625c0-0.92578-0.27344-1.6719-0.8125-2.2344-0.54297-0.57031-1.25-0.85938-2.125-0.85938-0.94922 0-1.7188 0.26562-2.3125 0.79688s-0.96484 1.2969-1.1094 2.2969z"/>
  </symbol>
  <symbol id="l" overflow="visible">
   <path d="m9.2188-6.8906c-1.0234 0-1.793 0.17188-2.3125 0.51562-0.51172 0.34375-0.76562 0.85547-0.76562 1.5312 0 0.625 0.20703 1.1172 0.625 1.4688 0.41406 0.34375 0.98828 0.51562 1.7188 0.51562 0.92578 0 1.7031-0.32812 2.3281-0.98438 0.63281-0.66406 0.95312-1.4922 0.95312-2.4844v-0.5625zm7.4688-1.8438v8.7344h-4.9219v-2.2656c-0.65625 0.92969-1.3984 1.6055-2.2188 2.0312-0.82422 0.41406-1.8242 0.625-3 0.625-1.5859 0-2.8711-0.45703-3.8594-1.375-0.99219-0.92578-1.4844-2.1289-1.4844-3.6094 0-1.7891 0.61328-3.1016 1.8438-3.9375 1.2383-0.84375 3.1797-1.2656 5.8281-1.2656h2.8906v-0.39062c0-0.76953-0.30859-1.332-0.92188-1.6875-0.61719-0.36328-1.5703-0.54688-2.8594-0.54688-1.0547 0-2.0312 0.10547-2.9375 0.3125-0.89844 0.21094-1.7305 0.52344-2.5 0.9375v-3.7344c1.0391-0.25 2.0859-0.44141 3.1406-0.57812 1.0625-0.13281 2.125-0.20312 3.1875-0.20312 2.7578 0 4.75 0.54688 5.9688 1.6406 1.2266 1.0859 1.8438 2.8555 1.8438 5.3125z"/>
  </symbol>
  <symbol id="d" overflow="visible">
   <path d="m7.7031-19.656v4.3438h5.0469v3.5h-5.0469v6.5c0 0.71094 0.14062 1.1875 0.42188 1.4375s0.83594 0.375 1.6719 0.375h2.5156v3.5h-4.1875c-1.9375 0-3.3125-0.39844-4.125-1.2031-0.80469-0.8125-1.2031-2.1797-1.2031-4.1094v-6.5h-2.4219v-3.5h2.4219v-4.3438z"/>
  </symbol>
  <symbol id="k" overflow="visible">
   <path d="m12.766-13.078v-8.2031h4.9219v21.281h-4.9219v-2.2188c-0.66797 0.90625-1.4062 1.5703-2.2188 1.9844s-1.7578 0.625-2.8281 0.625c-1.8867 0-3.4336-0.75-4.6406-2.25-1.2109-1.5-1.8125-3.4258-1.8125-5.7812 0-2.3633 0.60156-4.2969 1.8125-5.7969 1.207-1.5 2.7539-2.25 4.6406-2.25 1.0625 0 2 0.21484 2.8125 0.64062 0.82031 0.42969 1.5664 1.0859 2.2344 1.9688zm-3.2188 9.9219c1.0391 0 1.8359-0.37891 2.3906-1.1406 0.55078-0.76953 0.82812-1.8828 0.82812-3.3438 0-1.457-0.27734-2.5664-0.82812-3.3281-0.55469-0.76953-1.3516-1.1562-2.3906-1.1562-1.043 0-1.8398 0.38672-2.3906 1.1562-0.55469 0.76172-0.82812 1.8711-0.82812 3.3281 0 1.4609 0.27344 2.5742 0.82812 3.3438 0.55078 0.76172 1.3477 1.1406 2.3906 1.1406z"/>
  </symbol>
  <symbol id="j" overflow="visible">
   <path d="m10.5-3.1562c1.0508 0 1.8516-0.37891 2.4062-1.1406 0.55078-0.76953 0.82812-1.8828 0.82812-3.3438 0-1.457-0.27734-2.5664-0.82812-3.3281-0.55469-0.76953-1.3555-1.1562-2.4062-1.1562-1.0547 0-1.8594 0.38672-2.4219 1.1562-0.55469 0.77344-0.82812 1.8828-0.82812 3.3281 0 1.4492 0.27344 2.5586 0.82812 3.3281 0.5625 0.77344 1.3672 1.1562 2.4219 1.1562zm-3.25-9.9219c0.67578-0.88281 1.4219-1.5391 2.2344-1.9688 0.82031-0.42578 1.7656-0.64062 2.8281-0.64062 1.8945 0 3.4453 0.75 4.6562 2.25 1.207 1.5 1.8125 3.4336 1.8125 5.7969 0 2.3555-0.60547 4.2812-1.8125 5.7812-1.2109 1.5-2.7617 2.25-4.6562 2.25-1.0625 0-2.0078-0.21094-2.8281-0.625-0.8125-0.42578-1.5586-1.0859-2.2344-1.9844v2.2188h-4.8906v-21.281h4.8906z"/>
  </symbol>
  <symbol id="i" overflow="visible">
   <path d="m0.34375-15.312h4.8906l4.125 10.391 3.5-10.391h4.8906l-6.4375 16.766c-0.64844 1.6953-1.4023 2.8828-2.2656 3.5625-0.86719 0.6875-2 1.0312-3.4062 1.0312h-2.8438v-3.2188h1.5312c0.83203 0 1.4375-0.13672 1.8125-0.40625 0.38281-0.26172 0.67969-0.73047 0.89062-1.4062l0.14062-0.42188z"/>
  </symbol>
  <symbol id="h" overflow="visible">
   <path d="m2.5781-20.406h5.25v7.4375l7.5938-7.4375h6.1094l-9.8281 9.6562 10.844 10.75h-6.5938l-8.125-8.0469v8.0469h-5.25z"/>
  </symbol>
  <symbol id="g" overflow="visible">
   <path d="m17.75-9.3281v9.3281h-4.9219v-7.1094c0-1.3438-0.03125-2.2656-0.09375-2.7656s-0.16797-0.86719-0.3125-1.1094c-0.1875-0.3125-0.44922-0.55469-0.78125-0.73438-0.32422-0.17578-0.69531-0.26562-1.1094-0.26562-1.0234 0-1.8242 0.39844-2.4062 1.1875-0.58594 0.78125-0.875 1.8711-0.875 3.2656v7.5312h-4.8906v-21.281h4.8906v8.2031c0.73828-0.88281 1.5195-1.5391 2.3438-1.9688 0.83203-0.42578 1.75-0.64062 2.75-0.64062 1.7695 0 3.1133 0.54688 4.0312 1.6406 0.91406 1.0859 1.375 2.6562 1.375 4.7188z"/>
  </symbol>
  <symbol id="c" overflow="visible">
   <path d="m9.6406-12.188c-1.0859 0-1.9141 0.39062-2.4844 1.1719-0.57422 0.78125-0.85938 1.9062-0.85938 3.375s0.28516 2.5938 0.85938 3.375c0.57031 0.77344 1.3984 1.1562 2.4844 1.1562 1.0625 0 1.875-0.38281 2.4375-1.1562 0.57031-0.78125 0.85938-1.9062 0.85938-3.375s-0.28906-2.5938-0.85938-3.375c-0.5625-0.78125-1.375-1.1719-2.4375-1.1719zm0-3.5c2.6328 0 4.6914 0.71484 6.1719 2.1406 1.4766 1.418 2.2188 3.3867 2.2188 5.9062 0 2.5117-0.74219 4.4805-2.2188 5.9062-1.4805 1.418-3.5391 2.125-6.1719 2.125-2.6484 0-4.7148-0.70703-6.2031-2.125-1.4922-1.4258-2.2344-3.3945-2.2344-5.9062 0-2.5195 0.74219-4.4883 2.2344-5.9062 1.4883-1.4258 3.5547-2.1406 6.2031-2.1406z"/>
  </symbol>
  <symbol id="f" overflow="visible">
   <path d="m2.3594-15.312h4.8906v15.312h-4.8906zm0-5.9688h4.8906v4h-4.8906z"/>
  </symbol>
  <symbol id="e" overflow="visible">
   <path d="m17.75-9.3281v9.3281h-4.9219v-7.1406c0-1.3203-0.03125-2.2344-0.09375-2.7344s-0.16797-0.86719-0.3125-1.1094c-0.1875-0.3125-0.44922-0.55469-0.78125-0.73438-0.32422-0.17578-0.69531-0.26562-1.1094-0.26562-1.0234 0-1.8242 0.39844-2.4062 1.1875-0.58594 0.78125-0.875 1.8711-0.875 3.2656v7.5312h-4.8906v-15.312h4.8906v2.2344c0.73828-0.88281 1.5195-1.5391 2.3438-1.9688 0.83203-0.42578 1.75-0.64062 2.75-0.64062 1.7695 0 3.1133 0.54688 4.0312 1.6406 0.91406 1.0859 1.375 2.6562 1.375 4.7188z"/>
  </symbol>
  <symbol id="s" overflow="visible">
   <path d="m12.422-21.281v3.2188h-2.7031c-0.6875 0-1.1719 0.125-1.4531 0.375-0.27344 0.25-0.40625 0.6875-0.40625 1.3125v1.0625h4.1875v3.5h-4.1875v11.812h-4.8906v-11.812h-2.4375v-3.5h2.4375v-1.0625c0-1.6641 0.46094-2.8984 1.3906-3.7031 0.92578-0.80078 2.3672-1.2031 4.3281-1.2031z"/>
  </symbol>
  <symbol id="r" overflow="visible">
   <path d="m16.547-12.766c0.61328-0.94531 1.3477-1.6719 2.2031-2.1719 0.85156-0.5 1.7891-0.75 2.8125-0.75 1.7578 0 3.0977 0.54688 4.0156 1.6406 0.92578 1.0859 1.3906 2.6562 1.3906 4.7188v9.3281h-4.9219v-7.9844-0.35938c0.007813-0.13281 0.015625-0.32031 0.015625-0.5625 0-1.082-0.16406-1.8633-0.48438-2.3438-0.3125-0.48828-0.82422-0.73438-1.5312-0.73438-0.92969 0-1.6484 0.38672-2.1562 1.1562-0.51172 0.76172-0.77344 1.8672-0.78125 3.3125v7.5156h-4.9219v-7.9844c0-1.6953-0.14844-2.7852-0.4375-3.2656-0.29297-0.48828-0.8125-0.73438-1.5625-0.73438-0.9375 0-1.6641 0.38672-2.1719 1.1562-0.51172 0.76172-0.76562 1.8594-0.76562 3.2969v7.5312h-4.9219v-15.312h4.9219v2.2344c0.60156-0.86328 1.2891-1.5156 2.0625-1.9531 0.78125-0.4375 1.6406-0.65625 2.5781-0.65625 1.0625 0 2 0.25781 2.8125 0.76562 0.8125 0.51172 1.4258 1.2305 1.8438 2.1562z"/>
  </symbol>
  <symbol id="q" overflow="visible">
   <path d="m2.5781-20.406h5.875l7.4219 14v-14h4.9844v20.406h-5.875l-7.4219-14v14h-4.9844z"/>
  </symbol>
  <symbol id="p" overflow="visible">
   <path d="m2.1875-5.9688v-9.3438h4.9219v1.5312c0 0.83594-0.007813 1.875-0.015625 3.125-0.011719 1.25-0.015625 2.0859-0.015625 2.5 0 1.2422 0.03125 2.1328 0.09375 2.6719 0.070313 0.54297 0.17969 0.93359 0.32812 1.1719 0.20703 0.32422 0.47266 0.57422 0.79688 0.75 0.32031 0.16797 0.69141 0.25 1.1094 0.25 1.0195 0 1.8203-0.39062 2.4062-1.1719 0.58203-0.78125 0.875-1.8672 0.875-3.2656v-7.5625h4.8906v15.312h-4.8906v-2.2188c-0.74219 0.89844-1.5234 1.5586-2.3438 1.9844-0.82422 0.41406-1.7344 0.625-2.7344 0.625-1.7617 0-3.1055-0.53906-4.0312-1.625-0.92969-1.082-1.3906-2.6602-1.3906-4.7344z"/>
  </symbol>
  <symbol id="o" overflow="visible">
   <path d="m2.5781-20.406h8.7344c2.5938 0 4.582 0.57812 5.9688 1.7344 1.3945 1.1484 2.0938 2.7891 2.0938 4.9219 0 2.1367-0.69922 3.7812-2.0938 4.9375-1.3867 1.1562-3.375 1.7344-5.9688 1.7344h-3.4844v7.0781h-5.25zm5.25 3.8125v5.7031h2.9219c1.0195 0 1.8047-0.25 2.3594-0.75 0.5625-0.5 0.84375-1.2031 0.84375-2.1094 0-0.91406-0.28125-1.6172-0.84375-2.1094-0.55469-0.48828-1.3398-0.73438-2.3594-0.73438z"/>
  </symbol>
  <symbol id="n" overflow="visible">
   <path d="m2.3594-15.312h4.8906v15.031c0 2.0508-0.49609 3.6172-1.4844 4.7031-0.98047 1.082-2.4062 1.625-4.2812 1.625h-2.4219v-3.2188h0.85938c0.92578 0 1.5625-0.21094 1.9062-0.625 0.35156-0.41797 0.53125-1.2461 0.53125-2.4844zm0-5.9688h4.8906v4h-4.8906z"/>
  </symbol>
  <symbol id="m" overflow="visible">
   <path d="m14.719-14.828v3.9844c-0.65625-0.45703-1.3242-0.79688-2-1.0156-0.66797-0.21875-1.3594-0.32812-2.0781-0.32812-1.3672 0-2.4336 0.40234-3.2031 1.2031-0.76172 0.79297-1.1406 1.9062-1.1406 3.3438 0 1.4297 0.37891 2.543 1.1406 3.3438 0.76953 0.79297 1.8359 1.1875 3.2031 1.1875 0.75781 0 1.4844-0.10938 2.1719-0.32812 0.6875-0.22656 1.3203-0.56641 1.9062-1.0156v4c-0.76172 0.28125-1.5391 0.48828-2.3281 0.625-0.78125 0.14453-1.5742 0.21875-2.375 0.21875-2.7617 0-4.9219-0.70703-6.4844-2.125-1.5547-1.4141-2.3281-3.3828-2.3281-5.9062 0-2.5312 0.77344-4.5039 2.3281-5.9219 1.5625-1.4141 3.7227-2.125 6.4844-2.125 0.80078 0 1.5938 0.074219 2.375 0.21875 0.78125 0.13672 1.5547 0.35156 2.3281 0.64062z"/>
  </symbol>
 </defs>
 <g>
  <path d="m350 303.13c51.57 0 91.969-24.012 91.969-54.672 0-30.66-40.398-54.699-91.969-54.699s-91.969 24.012-91.969 54.672 40.398 54.699 91.969 54.699zm-53.395-26c16.703-7.7969 34.961-11.703 53.395-11.426 18.434-0.27734 36.691 3.6289 53.395 11.426-16.711 7.7773-34.965 11.672-53.395 11.391-18.43 0.28125-36.684-3.6133-53.395-11.391zm53.395-68.734c41.926 0 77.352 18.344 77.352 40.062-0.45312 7.707-4.1992 14.848-10.285 19.602-20.387-11.676-43.582-17.543-67.066-16.965-23.488-0.57422-46.684 5.2969-67.066 16.98-6.0859-4.7539-9.832-11.895-10.285-19.602 0-21.734 35.426-40.078 77.352-40.078zm0-116.35c-138.95 0-252 84.312-252 187.95s113.05 187.95 252 187.95 252-84.312 252-187.95-113.05-187.95-252-187.95zm-168.56 66.199c45.059-33.266 104.91-51.582 168.56-51.582s123.48 18.316 168.56 51.582c21.219 15.176 38.898 34.762 51.836 57.414l-0.44922 0.25781c28.43 49.207-10.207 96.668-41.242 115.02-5.6016 3.3047-9.0625 9.293-9.125 15.793l-0.47656 16.547c-0.10937 3.3203-1.8086 6.3828-4.5625 8.2383-1.4453 1.0742-3.3047 1.418-5.0391 0.9375-7.7383-3.0586-10.602-9.5781-13.898-17.098-4.4336-10.078-11.133-25.367-34.887-18.445-8.793 2.5664-11.984 13.254-16.023 26.789-3.8008 12.75-8.5352 28.621-16.754 28.621h-0.003906c-5.5547-0.046875-10.461-3.6367-12.191-8.9141-1.2773-4.0664-3.9219-7.5664-7.4883-9.9023-3.5625-2.332-7.8281-3.3633-12.066-2.9102-4.75 0.47656-8.7539 0.73438-12.281 0.96484-10.695 0.69531-17.762 1.1523-22.355 7.3984-4.0273 5.4766-4.2109 13.316-4.2109 27.859v-0.003906c-0.14453 6.9609-5.8281 12.531-12.793 12.531-6.9609 0-12.645-5.5703-12.793-12.531v-17.008c0-19.602-39.57-25.977-58.734-25.977h0.003907c-7.4062-0.16797-14.785 0.89062-21.84 3.1367-11.199 4.1367-12.879 11.523-12.879 15.551h-0.003907c0 7.0625-5.7266 12.789-12.789 12.789s-12.789-5.7266-12.789-12.789v-20.938c0.035156-3.6367-1.0117-7.1992-3.0078-10.238-1.9922-3.043-4.8438-5.4219-8.1914-6.8359-68.035-29.375-80.105-61.512-85.898-92.016 7.7656-35.375 30.457-68.133 65.816-94.246zm337.12 243.51c-45.059 33.266-104.91 51.582-168.56 51.582s-123.48-18.316-168.56-51.582c-40.578-29.969-64.48-68.688-68.277-110.07 11.762 22.523 34.52 45.5 82.527 66.238 1.4961 0.58594 2.4609 2.0508 2.4023 3.6562v20.938c-0.007812 9.793 5.207 18.844 13.684 23.746 8.4727 4.9023 18.922 4.9141 27.406 0.027344 8.4844-4.8906 13.715-13.934 13.723-23.723 1.0234-1.5469 9.1172-5.1445 27.406-3.8516 21.391 1.5117 35.402 8.1758 36.824 11.277v16.801h0.003906c0 9.7891 5.2227 18.836 13.703 23.734 8.4766 4.8945 18.926 4.8945 27.406 0 8.4766-4.8984 13.703-13.945 13.703-23.734-0.41797-6.4219 0.03125-12.867 1.332-19.164 3.7695-1.0273 7.6602-1.5352 11.562-1.5117 3.4648-0.22266 7.7852-0.50391 12.789-1.0039h0.003906c1.875-0.21094 3.6328 0.94141 4.1875 2.7461 1.7656 5.5312 5.2461 10.359 9.9375 13.785 4.6953 3.4219 10.355 5.2617 16.164 5.2539 19.113 0 25.57-21.656 30.762-39.059v-0.003906c1.375-5.957 3.5703-11.699 6.5234-17.055 11.055-3.1367 12.461 0.074219 16.996 10.41 3.6172 8.2422 8.5742 19.531 21.84 24.809 6.1641 2.3242 13.078 1.4609 18.48-2.3125 6.75-4.4531 10.906-11.906 11.148-19.988l0.47656-16.547c-0.089844-1.4844 0.66797-2.8945 1.9609-3.6367 22.047-12.988 39.59-32.422 50.266-55.68 0.29688-0.67188 0.55859-1.3438 0.85547-2.0156-1.9883 43.578-26.191 84.555-68.68 115.93zm-350.86-167.55c-1.375-1.3672-2.1523-3.2266-2.1523-5.168 0-1.9375 0.77734-3.8008 2.1523-5.1641l13.637-13.641v-0.003906c2.8516-2.8516 7.4805-2.8555 10.336 0 2.8516 2.8516 2.8555 7.4805 0 10.332l-13.641 13.641v0.003907c-1.3672 1.375-3.2266 2.1484-5.1641 2.1484-1.9414 0-3.8008-0.77344-5.168-2.1484zm332.93 1.1211v-0.003906c-2.8516-2.8516-2.8516-7.4766 0-10.332l13.641-13.641h0.003906c2.8516-2.8555 7.4805-2.8555 10.332-0.003906 2.8555 2.8555 2.8555 7.4805 0.003906 10.336l-13.641 13.637c-2.8555 2.8516-7.4844 2.8516-10.34 0zm-144.34 91.281v-0.003906c2.8516 2.8555 2.8516 7.4766 0 10.332l-13.641 13.629c-2.8555 2.8555-7.4844 2.8555-10.34 0-2.8555-2.8516-2.8555-7.4805 0-10.336l13.641-13.637h0.003906c1.3633-1.3789 3.2227-2.1562 5.1641-2.1602 1.9414-0.003906 3.8008 0.76953 5.1719 2.1445zm-44.742-186.28-0.003906-0.003907c0.96484-1.6836 2.5625-2.9141 4.4336-3.418 1.875-0.5 3.8711-0.23438 5.5469 0.73828l16.715 9.6406c1.7617 0.92188 3.0664 2.5234 3.6211 4.4297 0.55469 1.9102 0.30859 3.9609-0.67969 5.6836-0.99219 1.7188-2.6406 2.9648-4.5703 3.4453-1.9258 0.48047-3.9648 0.15625-5.6484-0.89844l-16.746-9.6719c-1.6797-0.96484-2.9102-2.5586-3.4102-4.4336-0.50391-1.8711-0.23438-3.8672 0.73828-5.543zm-97.156 146.83c0.96484-1.6836 2.5586-2.9141 4.4336-3.418 1.8711-0.5 3.8672-0.23438 5.5469 0.73828l16.711 9.6484-0.003906 0.003906c3.4961 2.0078 4.6992 6.4727 2.6914 9.9648-2.0117 3.4961-6.4766 4.6992-9.9688 2.6875l-16.711-9.6484c-1.6875-0.95703-2.9219-2.5508-3.4297-4.4258-0.50391-1.875-0.24219-3.8711 0.73047-5.5508zm249.66-3.3945c2.0195-3.4922 6.4883-4.6875 9.9844-2.6719l16.703 9.6445c3.4961 2.0156 4.6914 6.4844 2.6758 9.9805-2.0195 3.4961-6.4883 4.6914-9.9844 2.6758l-16.703-9.6445c-3.4961-2.0195-4.6914-6.4883-2.6758-9.9844zm-49.707-124.26c0.96094-1.6875 2.5547-2.9219 4.4258-3.4297 1.875-0.50781 3.875-0.24219 5.5547 0.73047l0.16797 0.09375c2.8672 1.6523 4.2695 5.0273 3.4102 8.2266-0.85547 3.1992-3.7578 5.4219-7.0664 5.4141-1.2812 0.003906-2.5352-0.33594-3.6406-0.97656l-0.16797-0.09375v-0.003906c-1.6797-0.96094-2.9102-2.5547-3.4102-4.4219-0.50391-1.8711-0.24219-3.8633 0.72656-5.5391zm-167.03 17.098c0.96094-1.6875 2.5586-2.918 4.4297-3.4219 1.875-0.50391 3.8711-0.23828 5.5508 0.73828l0.16797 0.09375c2.8672 1.6523 4.2695 5.0273 3.4102 8.2266-0.85547 3.1992-3.7578 5.4219-7.0664 5.418-1.2812 0-2.5352-0.33984-3.6406-0.98047l-0.16797-0.09375v-0.003906c-3.4961-2.0156-4.6992-6.4805-2.6836-9.9766zm170.45 150.79c-0.96484 1.6836-2.5586 2.918-4.4336 3.4219-1.875 0.50391-3.875 0.23437-5.5547-0.74219l-0.16406-0.09375h0.003906c-3.4961-2.0117-4.7031-6.4727-2.6914-9.9727 2.0117-3.4961 6.4727-4.6992 9.9727-2.6875l0.16406 0.09375h-0.003906c1.6836 0.96484 2.9141 2.5586 3.4219 4.4297 0.50781 1.8711 0.25 3.8672-0.71484 5.5508z"/>
  <use x="70" y="644" xlink:href="#t"/>
  <use x="90.550781" y="644" xlink:href="#b"/>
  <use x="104.359375" y="644" xlink:href="#a"/>
  <use x="123.347656" y="644" xlink:href="#l"/>
  <use x="142.242188" y="644" xlink:href="#d"/>
  <use x="155.628906" y="644" xlink:href="#a"/>
  <use x="174.617188" y="644" xlink:href="#k"/>
  <use x="204.410156" y="644" xlink:href="#j"/>
  <use x="224.453125" y="644" xlink:href="#i"/>
  <use x="252.453125" y="644" xlink:href="#h"/>
  <use x="274.148438" y="644" xlink:href="#g"/>
  <use x="294.082031" y="644" xlink:href="#c"/>
  <use x="313.320312" y="644" xlink:href="#f"/>
  <use x="322.914062" y="644" xlink:href="#b"/>
  <use x="336.726562" y="644" xlink:href="#f"/>
  <use x="346.320312" y="644" xlink:href="#e"/>
  <use x="70" y="672" xlink:href="#s"/>
  <use x="82.183594" y="672" xlink:href="#b"/>
  <use x="95.992188" y="672" xlink:href="#c"/>
  <use x="115.226562" y="672" xlink:href="#r"/>
  <use x="154.152344" y="672" xlink:href="#d"/>
  <use x="167.535156" y="672" xlink:href="#g"/>
  <use x="187.46875" y="672" xlink:href="#a"/>
  <use x="216.207031" y="672" xlink:href="#q"/>
  <use x="239.640625" y="672" xlink:href="#c"/>
  <use x="258.878906" y="672" xlink:href="#p"/>
  <use x="278.8125" y="672" xlink:href="#e"/>
  <use x="308.492188" y="672" xlink:href="#o"/>
  <use x="329.015625" y="672" xlink:href="#b"/>
  <use x="342.820312" y="672" xlink:href="#c"/>
  <use x="362.058594" y="672" xlink:href="#n"/>
  <use x="371.65625" y="672" xlink:href="#a"/>
  <use x="390.648438" y="672" xlink:href="#m"/>
  <use x="407.242188" y="672" xlink:href="#d"/>
 </g>
</svg>
